<svg width="21" height="13" viewBox="0 0 21 13" fill="none" xmlns="http://www.w3.org/2000/svg">
<path d="M2.57812 1.26562C3.38021 0.463542 4.35417 0.0625 5.5 0.0625C6.64583 0.0625 7.61979 0.463542 8.42188 1.26562C9.22396 2.06771 9.625 3.04167 9.625 4.1875C9.625 5.59115 9.05208 6.70833 7.90625 7.53906C8.96615 8.05469 9.76823 8.79948 10.3125 9.77344C10.8568 8.79948 11.6589 8.05469 12.7188 7.53906C11.5729 6.70833 11 5.59115 11 4.1875C11 3.04167 11.401 2.06771 12.2031 1.26562C13.0052 0.463542 13.9792 0.0625 15.125 0.0625C16.2708 0.0625 17.2448 0.463542 18.0469 1.26562C18.849 2.06771 19.25 3.04167 19.25 4.1875C19.25 5.59115 18.6771 6.70833 17.5312 7.53906C18.4766 7.9974 19.2214 8.67057 19.7656 9.55859C20.3385 10.418 20.625 11.3776 20.625 12.4375H19.25C19.25 11.2917 18.849 10.3177 18.0469 9.51562C17.2448 8.71354 16.2708 8.3125 15.125 8.3125C13.9792 8.3125 13.0052 8.71354 12.2031 9.51562C11.401 10.3177 11 11.2917 11 12.4375H9.625C9.625 11.2917 9.22396 10.3177 8.42188 9.51562C7.61979 8.71354 6.64583 8.3125 5.5 8.3125C4.35417 8.3125 3.38021 8.71354 2.57812 9.51562C1.77604 10.3177 1.375 11.2917 1.375 12.4375H0C0 11.3776 0.272135 10.418 0.816406 9.55859C1.38932 8.67057 2.14844 7.9974 3.09375 7.53906C1.94792 6.70833 1.375 5.59115 1.375 4.1875C1.375 3.04167 1.77604 2.06771 2.57812 1.26562ZM7.43359 2.25391C6.91797 1.70964 6.27344 1.4375 5.5 1.4375C4.72656 1.4375 4.06771 1.70964 3.52344 2.25391C3.00781 2.76953 2.75 3.41406 2.75 4.1875C2.75 4.96094 3.00781 5.61979 3.52344 6.16406C4.06771 6.67969 4.72656 6.9375 5.5 6.9375C6.27344 6.9375 6.91797 6.67969 7.43359 6.16406C7.97786 5.61979 8.25 4.96094 8.25 4.1875C8.25 3.41406 7.97786 2.76953 7.43359 2.25391ZM17.0586 2.25391C16.543 1.70964 15.8984 1.4375 15.125 1.4375C14.3516 1.4375 13.6927 1.70964 13.1484 2.25391C12.6328 2.76953 12.375 3.41406 12.375 4.1875C12.375 4.96094 12.6328 5.61979 13.1484 6.16406C13.6927 6.67969 14.3516 6.9375 15.125 6.9375C15.8984 6.9375 16.543 6.67969 17.0586 6.16406C17.6029 5.61979 17.875 4.96094 17.875 4.1875C17.875 3.41406 17.6029 2.76953 17.0586 2.25391Z" fill="#05FF00"/>
</svg>
